<mxfile host="app.diagrams.net" modified="2023-08-15T06:47:17.203Z" agent="Mozilla/5.0 (Windows NT 10.0; Win64; x64) AppleWebKit/537.36 (KHTML, like Gecko) Chrome/115.0.0.0 Safari/537.36" version="21.6.6" etag="3tIhCB0Ap4yhxUUKUipH" type="github">
  <diagram name="Page-1" id="w9NLlqgkoE2dp19CO8Gk">
    <mxGraphModel>
      <root>
        <mxCell id="0" />
        <mxCell id="1" parent="0" />
      </root>
    </mxGraphModel>
  </diagram>
</mxfile>
